<?xml version="1.0" encoding="UTF-8" standalone="no"?>
<!-- Created with Inkscape (http://www.inkscape.org/) -->

<svg
   width="286.22693mm"
   height="136.21553mm"
   viewBox="0 0 286.22693 136.21553"
   version="1.1"
   id="svg1"
   xml:space="preserve"
   inkscape:version="1.3.2 (091e20e, 2023-11-25)"
   sodipodi:docname="MARLIN_Logo.svg"
   xmlns:inkscape="http://www.inkscape.org/namespaces/inkscape"
   xmlns:sodipodi="http://sodipodi.sourceforge.net/DTD/sodipodi-0.dtd"
   xmlns="http://www.w3.org/2000/svg"
   xmlns:svg="http://www.w3.org/2000/svg"><sodipodi:namedview
     id="namedview1"
     pagecolor="#ffffff"
     bordercolor="#000000"
     borderopacity="0.25"
     inkscape:showpageshadow="2"
     inkscape:pageopacity="0.0"
     inkscape:pagecheckerboard="0"
     inkscape:deskcolor="#d1d1d1"
     inkscape:document-units="mm"
     inkscape:zoom="0.45546131"
     inkscape:cx="979.22697"
     inkscape:cy="568.65423"
     inkscape:window-width="2344"
     inkscape:window-height="1413"
     inkscape:window-x="0"
     inkscape:window-y="25"
     inkscape:window-maximized="0"
     inkscape:current-layer="layer1"
     showgrid="false" /><defs
     id="defs1"><rect
       x="472.04889"
       y="366.66122"
       width="739.90918"
       height="299.69614"
       id="rect73" /><rect
       x="442.4086"
       y="408.37717"
       width="282.13153"
       height="136.12572"
       id="rect72" /></defs><g
     inkscape:label="Layer 1"
     inkscape:groupmode="layer"
     id="layer1"
     transform="translate(-8.7359604,31.220834)"><path
       style="fill:#000000"
       d="m 80.565625,104.34611 c -6.96828,-2.37566 -11.817686,-7.416342 -19.015451,-19.765432 -2.638645,-4.52708 -3.846135,-5.1219 -10.397472,-5.1219 -2.352626,0 -4.359846,0.0824 -4.460488,0.18306 -0.100642,0.10068 0.298582,0.75552 0.887166,1.45521 0.588583,0.69968 1.188648,1.58583 1.333479,1.96922 l 0.263328,0.69708 -1.503199,-0.065 c -2.383026,-0.10312 -5.244931,-1.57701 -8.550795,-4.4037 -1.294535,-1.10689 -1.980731,-1.43564 -5.199705,-2.4911 -2.385119,-0.78204 -4.391589,-1.63716 -5.6231,-2.39643 -1.053107,-0.64929 -1.987458,-1.10787 -2.076336,-1.01908 -0.08888,0.0888 -0.203234,1.62642 -0.254126,3.41697 -0.102819,3.61756 0.384906,6.24191 1.661564,8.94054 0.819198,1.73165 0.823241,1.78306 0.140218,1.78306 -1.782115,0 -4.988549,-2.95375 -6.96866,-6.4195 -1.725538,-3.02018 -3.074966,-8.25359 -3.074966,-11.92548 0,-1.87202 -0.0324,-1.96649 -1.24442,-3.62864 -6.037592,-8.2799 -8.63043,-17.72337 -7.480719,-27.24582 1.186417,-9.826464 4.322663,-18.637914 9.367711,-26.319104 2.506608,-3.81636 5.31747,-7.30791 9.798095,-12.17083 4.448028,-4.827545 6.445236,-7.459112 7.979432,-10.513878 1.489876,-2.96652 1.973437,-4.817522 1.971971,-7.54842 -0.0014,-2.640651 -0.303858,-3.866325 -1.534471,-6.218611 -0.920197,-1.758933 -3.636164,-4.84896 -5.231074,-5.95153 -1.126062,-0.778452 -0.648472,-1.013841 1.258054,-0.620055 6.253526,1.291645 15.774686,7.301153 24.518894,15.475689 1.432163,1.338859 3.470918,3.143699 4.530567,4.010756 l 1.926634,1.576466 5.313932,0.168445 c 7.435397,0.235692 11.752267,0.967756 18.674079,3.166787 4.29322,1.363939 7.03628,1.825258 10.81774,1.819296 8.776943,-0.01384 18.857993,-2.780397 42.893983,-11.771454 12.09458,-4.524175 15.71722,-5.769705 18.47986,-6.353713 1.87273,-0.395885 2.42223,-0.300931 2.42223,0.418564 0,0.673749 -2.09669,1.855359 -9.1058,5.131659 -3.21374,1.502214 -7.39097,3.495536 -9.28274,4.429602 -1.89178,0.934067 -7.13052,3.412872 -11.64167,5.508456 -11.92018,5.537339 -19.31938,9.402911 -23.86529,12.467971 -1.98378,1.33756 -5.30523,4.34612 -4.52874,4.10211 1.1683,-0.36711 5.03547,-0.67239 9.47632,-0.74807 4.74621,-0.0809 4.89479,-0.0673 4.89479,0.44576 0,0.76207 -3.03982,2.20829 -7.19599,3.42355 -6.45829,1.88839 -9.93811,3.69017 -15.293593,7.91871 -7.45646,5.88742 -13.997372,9.27273 -22.811632,11.80638 -1.962,0.56397 -3.624031,1.08217 -3.69341,1.15155 -0.06938,0.0694 -0.465419,1.476314 -0.880092,3.126524 -0.925348,3.68246 -1.872164,6.34962 -3.181013,8.96084 -1.448646,2.89012 -4.986706,7.52279 -5.416817,7.09268 -0.07077,-0.0708 0.293426,-1.36981 0.809335,-2.88675 1.003552,-2.95076 2.273156,-7.43632 2.141935,-7.56754 -0.04377,-0.0438 -0.922137,0.91508 -1.951927,2.13077 -2.739154,3.23363 -6.742698,6.4709 -10.921582,8.8312 -1.795602,1.01419 -2.910417,1.45041 -2.910417,1.13885 0,-0.1299 1.025905,-1.34734 2.279789,-2.70543 2.922412,-3.16527 5.293305,-6.48129 6.937795,-9.70345 1.455013,-2.8509 2.58783,-5.78712 2.331583,-6.04336 -0.261283,-0.26129 -4.238174,0.90257 -7.379102,2.15952 -11.026233,4.41254 -19.33867,12.64415 -20.57342,20.37338 -0.427387,2.67534 0.428877,6.11882 1.975022,7.94258 l 0.448616,0.52917 -0.173739,-0.52917 c -0.09556,-0.29104 -0.358125,-1.24354 -0.583486,-2.11667 -0.753164,-2.91801 -0.03219,-7.48931 1.606578,-10.18645 l 0.562656,-0.92605 0.163449,2.1995 c 0.419642,5.64702 4.815024,10.54104 13.003235,14.47839 4.668691,2.24497 9.226833,3.13785 10.711168,2.09818 0.657515,-0.46054 3.932721,-5.09451 8.077462,-11.4285 4.738632,-7.24157 8.597232,-12.01155 12.524432,-15.48261 4.41882,-3.90558 7.803332,-5.86464 10.156712,-5.87899 1.28724,-0.008 1.4645,0.0563 1.53569,0.55546 0.0531,0.37229 -0.3971,1.12321 -1.32291,2.2066 -6.908532,8.08436 -9.027842,11.91019 -12.608562,22.76135 -2.20493,6.68188 -2.53967,8.51665 -2.3412,12.83229 0.24127,5.24632 1.61218,10.58666 4.02886,15.69432 1.4501,3.0648 2.56785,4.92832 5.2026,8.673832 1.136262,1.6153 2.065942,3.07382 2.065942,3.24115 0,0.53861 -2.909622,0.33608 -4.894792,-0.34072 z M 23.679138,42.649978 c 3.784338,-2.47359 10.528098,-5.72919 14.543137,-7.02079 1.965456,-0.63226 3.575431,-1.22585 3.577722,-1.31907 0.0066,-0.26892 -5.964171,1.06176 -8.727083,1.94496 -3.320331,1.06139 -7.250871,2.81957 -9.993463,4.47019 -1.222521,0.73577 -2.268728,1.2918 -2.324907,1.23563 -0.276488,-0.27649 2.088394,-3.26065 4.377897,-5.52431 5.430768,-5.369474 13.785952,-9.884254 24.741514,-13.369244 3.772107,-1.19992 3.333114,-1.41256 -1.300687,-0.63003 -7.675077,1.29612 -13.184917,3.64772 -19.294133,8.23474 -5.472784,4.109174 -10.355145,10.347294 -11.10568,14.189564 -0.317367,1.62472 -0.0039,1.71768 1.625393,0.48194 0.82506,-0.62579 2.57119,-1.8379 3.88029,-2.69358 z M 14.71457,28.195754 c 1.9432,-3.85291 6.956024,-10.0691 11.49523,-14.25475 8.02692,-7.40171 14.33879,-11.90141 22.299061,-15.896906 1.723052,-0.86485 3.077588,-1.627688 3.01008,-1.695196 -0.151093,-0.151093 -3.244459,1.067249 -6.328218,2.492408 -4.509341,2.083993 -10.168199,5.677784 -15.028225,9.544024 -3.572857,2.84228 -9.083673,8.46663 -11.181595,11.41197 -1.491844,2.09444 -5.222571,8.95016 -5.222571,9.59718 0,0.47229 0.308533,0.0855 0.956238,-1.19873 z m 63.736735,-3.52568 c -5.03108,-0.99847 -8.826354,-4.46469 -10.60076,-9.68167 -0.806822,-2.37215 -1.198623,-5.63694 -0.939304,-7.82702 0.10769,-0.90951 0.122026,-1.65365 0.03186,-1.65365 -0.09017,0 -0.442782,0.8632 -0.783582,1.91823 -1.70138,5.26701 -0.57877,10.26742 3.137852,13.97686 2.658064,2.65293 5.047244,3.62952 8.887004,3.63264 l 2.11667,0.002 z m 12.614882,-11.33134 c 0.97312,-0.34349 2.58047,-1.16842 3.57187,-1.83319 1.78217,-1.19499 7.870493,-6.50037 7.679203,-6.69166 -0.0544,-0.0544 -1.16083,0.36206 -2.458643,0.92554 -3.49367,1.51688 -5.77551,2.91034 -10.11837,6.17901 l -2.73163,2.05597 1.14413,-0.006 c 0.62926,-0.003 1.94031,-0.28661 2.91344,-0.63009 z m -2.25311,-8.19979 c 1.36317,-1.17255 0.83951,-3.48582 -0.94338,-4.167431 -0.93657,-0.358051 -2.3392,0.193638 -2.81076,1.105541 -0.64069,1.23896 -0.50134,2.23353 0.42178,3.01029 1.05453,0.88733 2.33767,0.9072 3.33236,0.0516 z"
       id="path1"
       sodipodi:nodetypes="ssssssccsssssssssssssscssssscssssssssssssssssssssssssssssssscssscssssscscsssssssssssscssssssscsssssssccsssssccccssssccccsssss" /><text
       xml:space="preserve"
       transform="scale(0.26458333)"
       id="text72"
       style="white-space:pre;shape-inside:url(#rect72);display:inline;fill:#000000" /><text
       xml:space="preserve"
       transform="scale(0.26458333)"
       id="text73"
       style="white-space:pre;shape-inside:url(#rect73);display:inline;fill:#000000" /><text
       xml:space="preserve"
       style="font-size:3.175px;fill:#000000;stroke-width:0.264583"
       x="198.72231"
       y="54.605804"
       id="text74"><tspan
         sodipodi:role="line"
         id="tspan74"
         style="font-style:normal;font-variant:normal;font-weight:bold;font-stretch:normal;font-size:50.8px;font-family:Metropolis;-inkscape-font-specification:'Metropolis, Bold';font-variant-ligatures:normal;font-variant-caps:normal;font-variant-numeric:normal;font-variant-east-asian:normal;text-align:center;text-anchor:middle;stroke-width:0.264583"
         x="198.72231"
         y="54.605804"
         dy="9.0200005">MARLIN</tspan><tspan
         sodipodi:role="line"
         style="font-style:normal;font-variant:normal;font-weight:600;font-stretch:normal;font-size:11.2889px;font-family:Metropolis;-inkscape-font-specification:'Metropolis, Semi-Bold';font-variant-ligatures:normal;font-variant-caps:normal;font-variant-numeric:normal;font-variant-east-asian:normal;text-align:center;text-anchor:middle;stroke-width:0.264583"
         x="198.72231"
         y="81.755592"
         id="tspan1">FAST SPECTRAL SOLVER </tspan><tspan
         sodipodi:role="line"
         style="font-style:normal;font-variant:normal;font-weight:600;font-stretch:normal;font-size:11.2889px;font-family:Metropolis;-inkscape-font-specification:'Metropolis, Semi-Bold';font-variant-ligatures:normal;font-variant-caps:normal;font-variant-numeric:normal;font-variant-east-asian:normal;text-align:center;text-anchor:middle;stroke-width:0.264583"
         x="198.72231"
         y="95.866714"
         id="tspan2">&amp; LATTICE BOLTZMANN CODE</tspan></text></g></svg>
